<svg width="24" height="24" viewBox="0 0 24 24" fill="none" xmlns="http://www.w3.org/2000/svg">
<g clip-path="url(#clip0_161_492)">
<path d="M15.5511 12.9962L13.541 15.013C12.7259 15.831 11.2917 15.8486 10.459 15.013L8.44884 12.9962L1.22934 20.2391C1.49807 20.3634 1.79437 20.4375 2.10937 20.4375H21.8906C22.2056 20.4375 22.5018 20.3635 22.7705 20.2391L15.5511 12.9962Z" fill="#153F5E"/>
<path d="M21.8906 3.5625H2.10937C1.79437 3.5625 1.49807 3.63666 1.22943 3.76092L8.94398 11.5011C8.94449 11.5016 8.9451 11.5017 8.94562 11.5022C8.94614 11.5027 8.94623 11.5034 8.94623 11.5034L11.4547 14.0201C11.7211 14.2866 12.279 14.2866 12.5454 14.0201L15.0533 11.5038C15.0533 11.5038 15.0539 11.5027 15.0545 11.5022C15.0545 11.5022 15.0556 11.5016 15.0561 11.5011L22.7705 3.76088C22.5018 3.63656 22.2056 3.5625 21.8906 3.5625Z" fill="#153F5E"/>
<path d="M0.224344 4.74432C0.0853125 5.02548 0 5.33757 0 5.67189V18.3281C0 18.6624 0.0852187 18.9745 0.224297 19.2557L7.45631 12.0002L0.224344 4.74432Z" fill="#153F5E"/>
<path d="M23.7757 4.7442L16.5437 12.0002L23.7757 19.2558C23.9147 18.9746 24 18.6625 24 18.3281V5.67186C24 5.33745 23.9147 5.02536 23.7757 4.7442Z" fill="#153F5E"/>
</g>
<defs>
<clipPath id="clip0_161_492">
<rect width="24" height="24" fill="white"/>
</clipPath>
</defs>
</svg>
