<svg width="24" height="24" viewBox="0 0 24 24" fill="none" xmlns="http://www.w3.org/2000/svg">
<g clip-path="url(#clip0_230_2161)">
<path d="M12 24C5.36756 24 0 18.633 0 12C0 5.36756 5.36705 0 12 0C18.6324 0 24 5.36705 24 12C24 18.6324 18.633 24 12 24ZM7.35684 21.5272C6.9937 20.5382 6.68888 19.5328 6.44283 18.5134C5.72372 18.7319 5.01633 18.9938 4.32206 19.2991C5.20116 20.2227 6.22556 20.9747 7.35684 21.5272ZM3.39084 18.1762C4.28948 17.7601 5.20917 17.4122 6.14719 17.1331C5.87503 15.6803 5.71941 14.2017 5.68247 12.7031H1.42978C1.5593 14.6925 2.23725 16.5755 3.39084 18.1762ZM3.39084 5.82375C2.23725 7.42453 1.5593 9.30745 1.42978 11.2969H5.68247C5.71941 9.79833 5.87503 8.31966 6.14719 6.86686C5.20917 6.58781 4.28953 6.23991 3.39084 5.82375ZM4.32206 4.70086C5.01633 5.00616 5.72367 5.26814 6.44283 5.48658C6.68892 4.46714 6.9937 3.46177 7.35684 2.47275C6.22612 3.02498 5.20162 3.77686 4.32206 4.70086ZM11.2969 1.42978C10.5584 1.47783 9.83452 1.60111 9.1343 1.79658C8.57812 3.1147 8.13422 4.4662 7.80314 5.84484C8.94305 6.0997 10.1093 6.24872 11.2969 6.29086V1.42978ZM11.2969 7.69795C10.0103 7.65544 8.74664 7.49606 7.51167 7.221C7.26633 8.5583 7.12495 9.91866 7.08919 11.2969H11.2969V7.69795ZM11.2969 12.7031H7.08919C7.12495 14.0813 7.26633 15.4417 7.51167 16.779C8.74664 16.5039 10.0103 16.3446 11.2969 16.302V12.7031ZM11.2969 17.7091C10.1093 17.7513 8.94305 17.9003 7.80314 18.1552C8.13422 19.5338 8.57812 20.8853 9.1343 22.2034C9.83452 22.3989 10.5584 22.5222 11.2969 22.5702V17.7091ZM20.6092 18.1762C21.7627 16.5755 22.4407 14.6925 22.5702 12.7031H18.3175C18.2806 14.2017 18.125 15.6803 17.8528 17.1331C18.7908 17.4122 19.7105 17.7601 20.6092 18.1762ZM19.6779 19.2991C18.9837 18.9938 18.2763 18.7319 17.5572 18.5134C17.3111 19.5329 17.0063 20.5382 16.6432 21.5273C17.7739 20.975 18.7984 20.2231 19.6779 19.2991ZM12.7031 22.5702C13.4416 22.5222 14.1655 22.3989 14.8657 22.2034C15.4219 20.8853 15.8658 19.5338 16.1969 18.1552C15.057 17.9003 13.8907 17.7513 12.7031 17.7091V22.5702ZM12.7031 16.302C13.9897 16.3446 15.2534 16.5039 16.4883 16.779C16.7337 15.4417 16.875 14.0813 16.9108 12.7031H12.7031V16.302ZM14.8657 1.79663C14.1655 1.60111 13.4416 1.47783 12.7031 1.42978V6.29086C13.8907 6.24872 15.057 6.0997 16.1969 5.84484C15.8657 4.4662 15.4219 3.1147 14.8657 1.79663ZM12.7031 7.69795V11.2969H16.9108C16.875 9.91866 16.7337 8.5583 16.4883 7.221C15.2534 7.49606 13.9897 7.65544 12.7031 7.69795ZM16.6432 2.4728C17.0063 3.46181 17.3111 4.46719 17.5572 5.48663C18.2763 5.26814 18.9837 5.00616 19.6779 4.70091C18.7988 3.77733 17.7744 3.02531 16.6432 2.4728ZM20.6092 5.82375C19.7105 6.23991 18.7908 6.58781 17.8528 6.86686C18.125 8.31966 18.2806 9.79833 18.3175 11.2969H22.5702C22.4407 9.30745 21.7627 7.42453 20.6092 5.82375Z" fill="#153F5E"/>
</g>
<defs>
<clipPath id="clip0_230_2161">
<rect width="24" height="24" fill="white" transform="matrix(1 0 0 -1 0 24)"/>
</clipPath>
</defs>
</svg>
