<svg width="27" height="27" viewBox="0 0 27 27" fill="none" xmlns="http://www.w3.org/2000/svg">
<path d="M19.5187 0H7.48131C6.47845 0 5.65765 0.820029 5.65765 1.82366V25.1756C5.65765 26.1792 6.47845 27 7.48131 27H19.5187C20.5215 27 21.3423 26.1807 21.3423 25.1763V1.82366C21.3423 0.820029 20.5215 0 19.5187 0ZM11.5745 1.31451H15.4255C15.5474 1.31451 15.6461 1.41326 15.6461 1.53591C15.6461 1.6578 15.5474 1.75654 15.4255 1.75654H11.5745C11.4526 1.75654 11.3539 1.6578 11.3539 1.53591C11.3539 1.41326 11.4526 1.31451 11.5745 1.31451ZM13.5 26.0882C12.9963 26.0882 12.5882 25.6801 12.5882 25.1756C12.5882 24.6711 12.9963 24.2637 13.5 24.2637C14.0037 24.2637 14.4118 24.6711 14.4118 25.1756C14.4118 25.6801 14.0037 26.0882 13.5 26.0882ZM20.0733 23.625H6.92665V2.89209H20.0733V23.625Z" fill="#153F5E"/>
</svg>
