<svg width="18" height="24" viewBox="0 0 18 24" fill="none" xmlns="http://www.w3.org/2000/svg">
<path d="M9 0C6.61402 0.00316505 4.32668 0.952392 2.63953 2.63953C0.952393 4.32667 0.00316505 6.61402 0 8.99999C0 15.4612 8.385 23.5537 8.74125 23.895C8.81054 23.9623 8.90337 24 9 24C9.09663 24 9.18945 23.9623 9.25875 23.895C9.615 23.5537 18 15.4612 18 8.99999C17.9968 6.61402 17.0476 4.32667 15.3605 2.63953C13.6733 0.952392 11.386 0.00316505 9 0ZM9 13.125C8.18415 13.125 7.38663 12.8831 6.70827 12.4298C6.02992 11.9765 5.50121 11.3323 5.189 10.5786C4.87679 9.82481 4.7951 8.99541 4.95426 8.19524C5.11343 7.39507 5.50629 6.66007 6.08318 6.08318C6.66008 5.50629 7.39508 5.11342 8.19525 4.95426C8.99542 4.79509 9.82482 4.87678 10.5786 5.18899C11.3323 5.5012 11.9766 6.02991 12.4298 6.70827C12.8831 7.38662 13.125 8.18414 13.125 8.99999C13.1243 10.0938 12.6895 11.1426 11.9161 11.9161C11.1426 12.6895 10.0938 13.1243 9 13.125Z" fill="#153F5E"/>
</svg>
